<svg xmlns="http://www.w3.org/2000/svg" xmlns:xlink="http://www.w3.org/1999/xlink" contentStyleType="text/css" data-diagram-type="ACTIVITY" height="2393px" preserveAspectRatio="none" style="width:3897px;height:2393px;background:#FFFFFF;" version="1.1" viewBox="0 0 3897 2393" width="3897px" zoomAndPan="magnify"><title>Complete Flow: ExecProcCmd Execution with Authentication &amp; Database Connection</title><defs/><g><g class="title" data-source-line="14"><text fill="#000000" font-family="Verdana" font-size="22" font-weight="bold" lengthAdjust="spacing" textLength="1048.6309" x="1423.1608" y="35.4209">Complete Flow: ExecProcCmd Execution with Authentication &amp; Database Connection</text></g><rect fill="#FFFFFF" height="11.6406" style="stroke:#FFFFFF;stroke-width:1;" width="3874.9525" x="10" y="52.6094"/><rect fill="#ADD8E6" height="2333.8047" style="stroke:#ADD8E6;stroke-width:1;" width="450.877" x="10" y="52.6094"/><ellipse cx="187.9531" cy="79.25" fill="#FFFFFF" rx="10" ry="10" style="stroke:#000000;stroke-width:1;"/><path d="M379.9063,114.25 L379.9063,121.0703 L359.9063,125.0703 L379.9063,129.0703 L379.9063,135.8906 A0,0 0 0 0 379.9063,135.8906 L455.877,135.8906 A0,0 0 0 0 455.877,135.8906 L455.877,124.25 L445.877,114.25 L379.9063,114.25 A0,0 0 0 0 379.9063,114.25" fill="#FFF3E0" style="stroke:#F57C00;stroke-width:1;"/><path d="M445.877,114.25 L445.877,124.25 L455.877,124.25 L445.877,114.25" fill="#FFF3E0" style="stroke:#F57C00;stroke-width:1;"/><text fill="#000000" font-family="Verdana" font-size="10" lengthAdjust="spacing" textLength="54.9707" x="385.9063" y="128.5322">Entry Point</text><rect fill="#E8F4FD" height="31.6406" rx="12.5" ry="12.5" style="stroke:#1976D2;stroke-width:1;" width="343.9063" x="16" y="109.25"/><text fill="#000000" font-family="Verdana" font-size="10" lengthAdjust="spacing" textLength="323.9063" x="26" y="128.5322">User executes: exec-proc -u username -d database -p procedure</text><rect fill="#E8F4FD" height="31.6406" rx="12.5" ry="12.5" style="stroke:#1976D2;stroke-width:1;" width="116.8799" x="129.5132" y="160.8906"/><text fill="#000000" font-family="Verdana" font-size="10" lengthAdjust="spacing" textLength="96.8799" x="139.5132" y="180.1729">ExecProcCmd.call()</text><rect fill="#E8F4FD" height="31.6406" rx="12.5" ry="12.5" style="stroke:#1976D2;stroke-width:1;" width="253.2861" x="61.3101" y="212.5313"/><text fill="#000000" font-family="Verdana" font-size="10" lengthAdjust="spacing" textLength="233.2861" x="71.3101" y="231.8135">Validate required parameters (user, database)</text><rect fill="#E8F4FD" height="31.6406" rx="12.5" ry="12.5" style="stroke:#1976D2;stroke-width:1;" width="118.4277" x="128.7393" y="312.1719"/><text fill="#000000" font-family="Verdana" font-size="10" lengthAdjust="spacing" textLength="98.4277" x="138.7393" y="331.4541">Return error code 1</text><ellipse cx="187.9531" cy="382.6328" fill="none" rx="11" ry="11" style="stroke:#000000;stroke-width:1;"/><ellipse cx="187.9531" cy="382.6328" fill="#FFFFFF" rx="6" ry="6" style="stroke:#000000;stroke-width:1;"/><polygon fill="#E8F4FD" points="142.8921,264.1719,233.0142,264.1719,245.0142,276.1719,233.0142,288.1719,142.8921,288.1719,130.8921,276.1719,142.8921,264.1719" style="stroke:#1976D2;stroke-width:1;"/><text fill="#000000" font-family="Verdana" font-size="10" lengthAdjust="spacing" textLength="12.4561" x="191.9531" y="297.4541">no</text><text fill="#000000" font-family="Verdana" font-size="10" lengthAdjust="spacing" textLength="90.1221" x="142.8921" y="279.6338">Parameters valid?</text><polygon fill="#E8F4FD" points="135.729,1579.4453,240.1772,1579.4453,252.1772,1591.4453,240.1772,1603.4453,135.729,1603.4453,123.729,1591.4453,135.729,1579.4453" style="stroke:#1976D2;stroke-width:1;"/><text fill="#000000" font-family="Verdana" font-size="10" lengthAdjust="spacing" textLength="104.4482" x="135.729" y="1594.9072">procedure specified?</text><text fill="#000000" font-family="Verdana" font-size="10" lengthAdjust="spacing" textLength="17.2803" x="106.4487" y="1589.0869">yes</text><text fill="#000000" font-family="Verdana" font-size="10" lengthAdjust="spacing" textLength="12.4561" x="252.1772" y="1589.0869">no</text><polygon fill="#E8F4FD" points="187.9531,2268.7734,199.9531,2280.7734,187.9531,2292.7734,175.9531,2280.7734,187.9531,2268.7734" style="stroke:#1976D2;stroke-width:1;"/><line style="stroke:#000000;stroke-width:1;" x1="10" x2="10" y1="52.6094" y2="2386.4141"/><rect fill="#90EE90" height="2333.8047" style="stroke:#90EE90;stroke-width:1;" width="1126.7461" x="460.877" y="52.6094"/><rect fill="#E8F4FD" height="31.6406" rx="12.5" ry="12.5" style="stroke:#1976D2;stroke-width:1;" width="111.5771" x="822.9261" y="435.6328"/><text fill="#000000" font-family="Verdana" font-size="10" lengthAdjust="spacing" textLength="91.5771" x="832.9261" y="454.915">resolvePassword()</text><path d="M616.6595,477.2734 L616.6595,498.9141 L804.5638,498.9141 L804.5638,487.2734 L794.5638,477.2734 L616.6595,477.2734" fill="#FFF3E0" style="stroke:#F57C00;stroke-width:1;"/><path d="M794.5638,477.2734 L794.5638,487.2734 L804.5638,487.2734 L794.5638,477.2734" fill="#FFF3E0" style="stroke:#F57C00;stroke-width:1;"/><text fill="#000000" font-family="Verdana" font-size="10" lengthAdjust="spacing" textLength="166.9043" x="622.6595" y="491.5557">Direct vault parameters provided</text><polygon fill="#E8F4FD" points="816.5638,498.9141,940.8656,498.9141,952.8656,510.9141,940.8656,522.9141,816.5638,522.9141,804.5638,510.9141,816.5638,498.9141" style="stroke:#1976D2;stroke-width:1;"/><text fill="#000000" font-family="Verdana" font-size="10" lengthAdjust="spacing" textLength="124.3018" x="816.5638" y="514.376">hasDirectVaultParams()?</text><text fill="#000000" font-family="Verdana" font-size="10" lengthAdjust="spacing" textLength="17.2803" x="787.2836" y="508.5557">yes</text><text fill="#000000" font-family="Verdana" font-size="10" lengthAdjust="spacing" textLength="12.4561" x="952.8656" y="508.5557">no</text><rect fill="#E8F4FD" height="43.2813" rx="12.5" ry="12.5" style="stroke:#1976D2;stroke-width:1;" width="244.7803" x="466.877" y="542.9141"/><text fill="#000000" font-family="Verdana" font-size="10" lengthAdjust="spacing" textLength="167.3389" x="476.877" y="562.1963">VaultClient.fetchOraclePassword(</text><text fill="#000000" font-family="Verdana" font-size="10" lengthAdjust="spacing" textLength="224.7803" x="476.877" y="573.8369">vaultUrl, roleId, secretId, database, ait, user)</text><path d="M1301.3118,547.9141 L1301.3118,554.7344 L1281.3118,558.7344 L1301.3118,562.7344 L1301.3118,569.5547 A0,0 0 0 0 1301.3118,569.5547 L1489.6799,569.5547 A0,0 0 0 0 1489.6799,569.5547 L1489.6799,557.9141 L1479.6799,547.9141 L1301.3118,547.9141 A0,0 0 0 0 1301.3118,547.9141" fill="#FFF3E0" style="stroke:#F57C00;stroke-width:1;"/><path d="M1479.6799,547.9141 L1479.6799,557.9141 L1489.6799,557.9141 L1479.6799,547.9141" fill="#FFF3E0" style="stroke:#F57C00;stroke-width:1;"/><text fill="#000000" font-family="Verdana" font-size="10" lengthAdjust="spacing" textLength="167.3682" x="1307.3118" y="562.1963">Search vaults.json for user config</text><rect fill="#E8F4FD" height="31.6406" rx="12.5" ry="12.5" style="stroke:#1976D2;stroke-width:1;" width="226.2988" x="1055.0129" y="542.9141"/><text fill="#000000" font-family="Verdana" font-size="10" lengthAdjust="spacing" textLength="206.2988" x="1065.0129" y="562.1963">VaultClient.getVaultParamsForUser(user)</text><polygon fill="#E8F4FD" points="1118.3723,606.1953,1217.9524,606.1953,1229.9524,618.1953,1217.9524,630.1953,1118.3723,630.1953,1106.3723,618.1953,1118.3723,606.1953" style="stroke:#1976D2;stroke-width:1;"/><text fill="#000000" font-family="Verdana" font-size="10" lengthAdjust="spacing" textLength="99.5801" x="1118.3723" y="621.6572">vaultParams found?</text><text fill="#000000" font-family="Verdana" font-size="10" lengthAdjust="spacing" textLength="17.2803" x="1089.092" y="615.8369">yes</text><text fill="#000000" font-family="Verdana" font-size="10" lengthAdjust="spacing" textLength="12.4561" x="1229.9524" y="615.8369">no</text><rect fill="#E8F4FD" height="31.6406" rx="12.5" ry="12.5" style="stroke:#1976D2;stroke-width:1;" width="213.0518" x="910.9639" y="650.1953"/><text fill="#000000" font-family="Verdana" font-size="10" lengthAdjust="spacing" textLength="193.0518" x="920.9639" y="669.4775">VaultClient.fetchOraclePassword(user)</text><path d="M1402.6875,655.1953 L1402.6875,662.0156 L1382.6875,666.0156 L1402.6875,670.0156 L1402.6875,676.8359 A0,0 0 0 0 1402.6875,676.8359 L1582.623,676.8359 A0,0 0 0 0 1582.623,676.8359 L1582.623,665.1953 L1572.623,655.1953 L1402.6875,655.1953 A0,0 0 0 0 1402.6875,655.1953" fill="#FFF3E0" style="stroke:#F57C00;stroke-width:1;"/><path d="M1572.623,655.1953 L1572.623,665.1953 L1582.623,665.1953 L1572.623,655.1953" fill="#FFF3E0" style="stroke:#F57C00;stroke-width:1;"/><text fill="#000000" font-family="Verdana" font-size="10" lengthAdjust="spacing" textLength="158.9355" x="1408.6875" y="669.4775">Manual password entry fallback</text><rect fill="#E8F4FD" height="31.6406" rx="12.5" ry="12.5" style="stroke:#1976D2;stroke-width:1;" width="127.7051" x="1254.9824" y="650.1953"/><text fill="#000000" font-family="Verdana" font-size="10" lengthAdjust="spacing" textLength="107.7051" x="1264.9824" y="669.4775">promptForPassword()</text><rect fill="#E8F4FD" height="31.6406" rx="12.5" ry="12.5" style="stroke:#1976D2;stroke-width:1;" width="164.4678" x="1236.6011" y="716.8359"/><text fill="#000000" font-family="Verdana" font-size="10" lengthAdjust="spacing" textLength="144.4678" x="1246.6011" y="736.1182">Read password from console</text><polygon fill="#E8F4FD" points="1168.1624,1179.9609,1180.1624,1191.9609,1168.1624,1203.9609,1156.1624,1191.9609,1168.1624,1179.9609" style="stroke:#1976D2;stroke-width:1;"/><polygon fill="#E8F4FD" points="878.7147,1213.9609,890.7147,1225.9609,878.7147,1237.9609,866.7147,1225.9609,878.7147,1213.9609" style="stroke:#1976D2;stroke-width:1;"/><line style="stroke:#000000;stroke-width:1;" x1="460.877" x2="460.877" y1="52.6094" y2="2386.4141"/><rect fill="#FFFF00" height="2333.8047" style="stroke:#FFFF00;stroke-width:1;" width="832.6307" x="1587.623" y="52.6094"/><path d="M1820.1268,477.2734 L1820.1268,498.9141 L2008.0311,498.9141 L2008.0311,487.2734 L1998.0311,477.2734 L1820.1268,477.2734" fill="#FFF3E0" style="stroke:#F57C00;stroke-width:1;"/><path d="M1998.0311,477.2734 L1998.0311,487.2734 L2008.0311,487.2734 L1998.0311,477.2734" fill="#FFF3E0" style="stroke:#F57C00;stroke-width:1;"/><text fill="#000000" font-family="Verdana" font-size="10" lengthAdjust="spacing" textLength="166.9043" x="1826.1268" y="491.5557">Direct vault parameters provided</text><rect fill="#E8F4FD" height="31.6406" rx="12.5" ry="12.5" style="stroke:#1976D2;stroke-width:1;" width="305.6201" x="1639.9243" y="617.8359"/><text fill="#000000" font-family="Verdana" font-size="10" lengthAdjust="spacing" textLength="285.6201" x="1649.9243" y="637.1182">Build full Vault URL (https://vault-lle.bankofamerica.com)</text><rect fill="#E8F4FD" height="31.6406" rx="12.5" ry="12.5" style="stroke:#1976D2;stroke-width:1;" width="227.3779" x="1679.0454" y="684.4766"/><text fill="#000000" font-family="Verdana" font-size="10" lengthAdjust="spacing" textLength="207.3779" x="1689.0454" y="703.7588">Create auth request with role-id/secret-id</text><rect fill="#E8F4FD" height="31.6406" rx="12.5" ry="12.5" style="stroke:#1976D2;stroke-width:1;" width="160.3613" x="1712.5537" y="751.1172"/><text fill="#000000" font-family="Verdana" font-size="10" lengthAdjust="spacing" textLength="140.3613" x="1722.5537" y="770.3994">POST /v1/auth/approle/login</text><rect fill="#E8F4FD" height="31.6406" rx="12.5" ry="12.5" style="stroke:#1976D2;stroke-width:1;" width="195.2686" x="1695.1001" y="817.7578"/><text fill="#000000" font-family="Verdana" font-size="10" lengthAdjust="spacing" textLength="175.2686" x="1705.1001" y="837.04">Extract client_token from response</text><rect fill="#E8F4FD" height="31.6406" rx="12.5" ry="12.5" style="stroke:#1976D2;stroke-width:1;" width="398.2227" x="1593.623" y="884.3984"/><text fill="#000000" font-family="Verdana" font-size="10" lengthAdjust="spacing" textLength="378.2227" x="1603.623" y="903.6807">GET /v1/secrets/database/oracle/static-creds/{dbName}-{ait}-{username}</text><rect fill="#E8F4FD" height="31.6406" rx="12.5" ry="12.5" style="stroke:#1976D2;stroke-width:1;" width="140.3564" x="1722.5562" y="951.0391"/><text fill="#000000" font-family="Verdana" font-size="10" lengthAdjust="spacing" textLength="120.3564" x="1732.5562" y="970.3213">Return Oracle password</text><rect fill="#E8F4FD" height="31.6406" rx="12.5" ry="12.5" style="stroke:#1976D2;stroke-width:1;" width="189.9707" x="2122.1571" y="716.8359"/><text fill="#000000" font-family="Verdana" font-size="10" lengthAdjust="spacing" textLength="169.9707" x="2132.1571" y="736.1182">Load vault config from vaults.json</text><rect fill="#E8F4FD" height="31.6406" rx="12.5" ry="12.5" style="stroke:#1976D2;stroke-width:1;" width="188.0566" x="2123.1141" y="783.4766"/><text fill="#000000" font-family="Verdana" font-size="10" lengthAdjust="spacing" textLength="168.0566" x="2133.1141" y="802.7588">Extract role-id, secret-id, base-url</text><rect fill="#E8F4FD" height="31.6406" rx="12.5" ry="12.5" style="stroke:#1976D2;stroke-width:1;" width="305.6201" x="2064.3324" y="850.1172"/><text fill="#000000" font-family="Verdana" font-size="10" lengthAdjust="spacing" textLength="285.6201" x="2074.3324" y="869.3994">Build full Vault URL (https://vault-lle.bankofamerica.com)</text><rect fill="#E8F4FD" height="31.6406" rx="12.5" ry="12.5" style="stroke:#1976D2;stroke-width:1;" width="120.7617" x="2156.7616" y="916.7578"/><text fill="#000000" font-family="Verdana" font-size="10" lengthAdjust="spacing" textLength="100.7617" x="2166.7616" y="936.04">Create auth request</text><rect fill="#E8F4FD" height="31.6406" rx="12.5" ry="12.5" style="stroke:#1976D2;stroke-width:1;" width="160.3613" x="2136.9618" y="983.3984"/><text fill="#000000" font-family="Verdana" font-size="10" lengthAdjust="spacing" textLength="140.3613" x="2146.9618" y="1002.6807">POST /v1/auth/approle/login</text><rect fill="#E8F4FD" height="31.6406" rx="12.5" ry="12.5" style="stroke:#1976D2;stroke-width:1;" width="119.7803" x="2157.2523" y="1035.0391"/><text fill="#000000" font-family="Verdana" font-size="10" lengthAdjust="spacing" textLength="99.7803" x="2167.2523" y="1054.3213">Extract client_token</text><rect fill="#E8F4FD" height="31.6406" rx="12.5" ry="12.5" style="stroke:#1976D2;stroke-width:1;" width="398.2227" x="2018.0311" y="1086.6797"/><text fill="#000000" font-family="Verdana" font-size="10" lengthAdjust="spacing" textLength="378.2227" x="2028.0311" y="1105.9619">GET /v1/secrets/database/oracle/static-creds/{dbName}-{ait}-{username}</text><rect fill="#E8F4FD" height="31.6406" rx="12.5" ry="12.5" style="stroke:#1976D2;stroke-width:1;" width="140.3564" x="2146.9642" y="1138.3203"/><text fill="#000000" font-family="Verdana" font-size="10" lengthAdjust="spacing" textLength="120.3564" x="2156.9642" y="1157.6025">Return Oracle password</text><line style="stroke:#000000;stroke-width:1;" x1="1587.623" x2="1587.623" y1="52.6094" y2="2386.4141"/><rect fill="#E0FFFF" height="2333.8047" style="stroke:#E0FFFF;stroke-width:1;" width="536.1699" x="2420.2538" y="52.6094"/><rect fill="#E8F4FD" height="43.2813" rx="12.5" ry="12.5" style="stroke:#1976D2;stroke-width:1;" width="216.04" x="2472.5868" y="1257.9609"/><text fill="#000000" font-family="Verdana" font-size="10" lengthAdjust="spacing" textLength="196.04" x="2482.5868" y="1277.2432">ConnectionManager.createConnection(</text><text fill="#000000" font-family="Verdana" font-size="10" lengthAdjust="spacing" textLength="185.7275" x="2482.5868" y="1288.8838">type, database, user, password, null)</text><path d="M2693.7001,1326.2422 L2693.7001,1333.0625 L2673.7001,1337.0625 L2693.7001,1341.0625 L2693.7001,1347.8828 A0,0 0 0 0 2693.7001,1347.8828 L2951.4237,1347.8828 A0,0 0 0 0 2951.4237,1347.8828 L2951.4237,1336.2422 L2941.4237,1326.2422 L2693.7001,1326.2422 A0,0 0 0 0 2693.7001,1326.2422" fill="#FFF3E0" style="stroke:#F57C00;stroke-width:1;"/><path d="M2941.4237,1326.2422 L2941.4237,1336.2422 L2951.4237,1336.2422 L2941.4237,1326.2422" fill="#FFF3E0" style="stroke:#F57C00;stroke-width:1;"/><text fill="#000000" font-family="Verdana" font-size="10" lengthAdjust="spacing" textLength="236.7236" x="2699.7001" y="1340.5244">Build Oracle LDAP URL for production database</text><rect fill="#E8F4FD" height="31.6406" rx="12.5" ry="12.5" style="stroke:#1976D2;stroke-width:1;" width="186.1865" x="2487.5135" y="1321.2422"/><text fill="#000000" font-family="Verdana" font-size="10" lengthAdjust="spacing" textLength="166.1865" x="2497.5135" y="1340.5244">Generate LDAP connection string</text><rect fill="#E8F4FD" height="31.6406" rx="12.5" ry="12.5" style="stroke:#1976D2;stroke-width:1;" width="166.1279" x="2497.5428" y="1372.8828"/><text fill="#000000" font-family="Verdana" font-size="10" lengthAdjust="spacing" textLength="146.1279" x="2507.5428" y="1392.165">Create ConnectionInfo object</text><rect fill="#E8F4FD" height="31.6406" rx="12.5" ry="12.5" style="stroke:#1976D2;stroke-width:1;" width="308.7061" x="2426.2538" y="1424.5234"/><text fill="#000000" font-family="Verdana" font-size="10" lengthAdjust="spacing" textLength="288.7061" x="2436.2538" y="1443.8057">url = jdbc:oracle:thin@ldap://oid1puser.bankofamerica...)</text><rect fill="#E8F4FD" height="31.6406" rx="12.5" ry="12.5" style="stroke:#1976D2;stroke-width:1;" width="152.6855" x="2504.264" y="1476.1641"/><text fill="#000000" font-family="Verdana" font-size="10" lengthAdjust="spacing" textLength="132.6855" x="2514.264" y="1495.4463">user = resolved username</text><rect fill="#E8F4FD" height="31.6406" rx="12.5" ry="12.5" style="stroke:#1976D2;stroke-width:1;" width="176.0059" x="2492.6039" y="1527.8047"/><text fill="#000000" font-family="Verdana" font-size="10" lengthAdjust="spacing" textLength="156.0059" x="2502.6039" y="1547.0869">password = resolved password</text><line style="stroke:#000000;stroke-width:1;" x1="2420.2538" x2="2420.2538" y1="52.6094" y2="2386.4141"/><rect fill="#FFC0CB" height="2333.8047" style="stroke:#FFC0CB;stroke-width:1;" width="636.0352" x="2956.4237" y="52.6094"/><rect fill="#E8F4FD" height="31.6406" rx="12.5" ry="12.5" style="stroke:#1976D2;stroke-width:1;" width="166.4453" x="3054.3756" y="1623.4453"/><text fill="#000000" font-family="Verdana" font-size="10" lengthAdjust="spacing" textLength="146.4453" x="3064.3756" y="1642.7275">executeProcedure(password)</text><rect fill="#E8F4FD" height="43.2813" rx="12.5" ry="12.5" style="stroke:#1976D2;stroke-width:1;" width="271.2842" x="3001.9562" y="1675.0859"/><text fill="#000000" font-family="Verdana" font-size="10" lengthAdjust="spacing" textLength="251.2842" x="3011.9562" y="1694.3682">ProcedureExecutor.executeProcedureWithStrings(</text><text fill="#000000" font-family="Verdana" font-size="10" lengthAdjust="spacing" textLength="126.499" x="3011.9562" y="1706.0088">procedure, input, output)</text><polygon fill="#E8F4FD" points="3103.7286,2163.1328,3171.4679,2163.1328,3183.4679,2175.1328,3171.4679,2187.1328,3103.7286,2187.1328,3091.7286,2175.1328,3103.7286,2163.1328" style="stroke:#1976D2;stroke-width:1;"/><text fill="#000000" font-family="Verdana" font-size="10" lengthAdjust="spacing" textLength="67.7393" x="3103.7286" y="2178.5947">Single result?</text><text fill="#000000" font-family="Verdana" font-size="10" lengthAdjust="spacing" textLength="17.2803" x="3074.4484" y="2172.7744">yes</text><text fill="#000000" font-family="Verdana" font-size="10" lengthAdjust="spacing" textLength="12.4561" x="3183.4679" y="2172.7744">no</text><rect fill="#E8F4FD" height="31.6406" rx="12.5" ry="12.5" style="stroke:#1976D2;stroke-width:1;" width="161.0645" x="2962.4237" y="2197.1328"/><text fill="#000000" font-family="Verdana" font-size="10" lengthAdjust="spacing" textLength="141.0645" x="2972.4237" y="2216.415">Print single value to console</text><rect fill="#E8F4FD" height="31.6406" rx="12.5" ry="12.5" style="stroke:#1976D2;stroke-width:1;" width="177.5049" x="3143.4882" y="2197.1328"/><text fill="#000000" font-family="Verdana" font-size="10" lengthAdjust="spacing" textLength="157.5049" x="3153.4882" y="2216.415">Print key-value pairs to console</text><polygon fill="#E8F4FD" points="3137.5983,2234.7734,3149.5983,2246.7734,3137.5983,2258.7734,3125.5983,2246.7734,3137.5983,2234.7734" style="stroke:#1976D2;stroke-width:1;"/><rect fill="#E8F4FD" height="31.6406" rx="12.5" ry="12.5" style="stroke:#1976D2;stroke-width:1;" width="237.4658" x="3350.993" y="1623.4453"/><text fill="#000000" font-family="Verdana" font-size="10" lengthAdjust="spacing" textLength="217.4658" x="3360.993" y="1642.7275">Print password resolution success message</text><rect fill="#E8F4FD" height="31.6406" rx="12.5" ry="12.5" style="stroke:#1976D2;stroke-width:1;" width="132.9395" x="3237.1924" y="2312.7734"/><text fill="#000000" font-family="Verdana" font-size="10" lengthAdjust="spacing" textLength="112.9395" x="3247.1924" y="2332.0557">Return success code 0</text><ellipse cx="3303.6621" cy="2375.4141" fill="none" rx="11" ry="11" style="stroke:#000000;stroke-width:1;"/><ellipse cx="3303.6621" cy="2375.4141" fill="#FFFFFF" rx="6" ry="6" style="stroke:#000000;stroke-width:1;"/><line style="stroke:#000000;stroke-width:1;" x1="2956.4237" x2="2956.4237" y1="52.6094" y2="2386.4141"/><rect fill="#E6E6FA" height="2333.8047" style="stroke:#E6E6FA;stroke-width:1;" width="291.9043" x="3592.4589" y="52.6094"/><rect fill="#E8F4FD" height="43.2813" rx="12.5" ry="12.5" style="stroke:#1976D2;stroke-width:1;" width="281.9043" x="3598.4589" y="1738.3672"/><text fill="#000000" font-family="Verdana" font-size="10" lengthAdjust="spacing" textLength="154.6875" x="3608.4589" y="1757.6494">DriverManager.getConnection(</text><text fill="#000000" font-family="Verdana" font-size="10" lengthAdjust="spacing" textLength="261.9043" x="3608.4589" y="1769.29">connInfo.url(), connInfo.user(), connInfo.password())</text><rect fill="#E8F4FD" height="31.6406" rx="12.5" ry="12.5" style="stroke:#1976D2;stroke-width:1;" width="216.6992" x="3631.0614" y="1801.6484"/><text fill="#000000" font-family="Verdana" font-size="10" lengthAdjust="spacing" textLength="196.6992" x="3641.0614" y="1820.9307">Parse procedure name and parameters</text><rect fill="#E8F4FD" height="31.6406" rx="12.5" ry="12.5" style="stroke:#1976D2;stroke-width:1;" width="149.3213" x="3664.7504" y="1853.2891"/><text fill="#000000" font-family="Verdana" font-size="10" lengthAdjust="spacing" textLength="129.3213" x="3674.7504" y="1872.5713">Create CallableStatement</text><rect fill="#E8F4FD" height="31.6406" rx="12.5" ry="12.5" style="stroke:#1976D2;stroke-width:1;" width="126.5039" x="3676.1591" y="1904.9297"/><text fill="#000000" font-family="Verdana" font-size="10" lengthAdjust="spacing" textLength="106.5039" x="3686.1591" y="1924.2119">Set input parameters</text><rect fill="#E8F4FD" height="31.6406" rx="12.5" ry="12.5" style="stroke:#1976D2;stroke-width:1;" width="158.9648" x="3659.9286" y="1956.5703"/><text fill="#000000" font-family="Verdana" font-size="10" lengthAdjust="spacing" textLength="138.9648" x="3669.9286" y="1975.8525">Register output parameters</text><rect fill="#E8F4FD" height="31.6406" rx="12.5" ry="12.5" style="stroke:#1976D2;stroke-width:1;" width="149.6924" x="3664.5648" y="2008.2109"/><text fill="#000000" font-family="Verdana" font-size="10" lengthAdjust="spacing" textLength="129.6924" x="3674.5648" y="2027.4932">Execute stored procedure</text><rect fill="#E8F4FD" height="31.6406" rx="12.5" ry="12.5" style="stroke:#1976D2;stroke-width:1;" width="153.1592" x="3662.8314" y="2059.8516"/><text fill="#000000" font-family="Verdana" font-size="10" lengthAdjust="spacing" textLength="133.1592" x="3672.8314" y="2079.1338">Extract output parameters</text><rect fill="#E8F4FD" height="31.6406" rx="12.5" ry="12.5" style="stroke:#1976D2;stroke-width:1;" width="195.3076" x="3641.7572" y="2111.4922"/><text fill="#000000" font-family="Verdana" font-size="10" lengthAdjust="spacing" textLength="175.3076" x="3651.7572" y="2130.7744">Return result Map&lt;String, Object&gt;</text><line style="stroke:#000000;stroke-width:1;" x1="3592.4589" x2="3592.4589" y1="52.6094" y2="2386.4141"/><line style="stroke:#000000;stroke-width:1;" x1="3884.3632" x2="3884.3632" y1="52.6094" y2="2386.4141"/><line style="stroke:#000000;stroke-width:1;" x1="187.9531" x2="187.9531" y1="89.25" y2="109.25"/><polygon fill="#000000" points="183.9531,99.25,187.9531,109.25,191.9531,99.25,187.9531,103.25" style="stroke:#000000;stroke-width:1;"/><line style="stroke:#000000;stroke-width:1;" x1="187.9531" x2="187.9531" y1="140.8906" y2="160.8906"/><polygon fill="#000000" points="183.9531,150.8906,187.9531,160.8906,191.9531,150.8906,187.9531,154.8906" style="stroke:#000000;stroke-width:1;"/><line style="stroke:#000000;stroke-width:1;" x1="187.9531" x2="187.9531" y1="192.5313" y2="212.5313"/><polygon fill="#000000" points="183.9531,202.5313,187.9531,212.5313,191.9531,202.5313,187.9531,206.5313" style="stroke:#000000;stroke-width:1;"/><line style="stroke:#000000;stroke-width:1;" x1="187.9531" x2="187.9531" y1="343.8125" y2="371.6328"/><polygon fill="#000000" points="183.9531,361.6328,187.9531,371.6328,191.9531,361.6328,187.9531,365.6328" style="stroke:#000000;stroke-width:1;"/><line style="stroke:#000000;stroke-width:1;" x1="187.9531" x2="187.9531" y1="288.1719" y2="312.1719"/><polygon fill="#000000" points="183.9531,302.1719,187.9531,312.1719,191.9531,302.1719,187.9531,306.1719" style="stroke:#000000;stroke-width:1;"/><line style="stroke:#000000;stroke-width:1;" x1="245.0142" x2="878.7147" y1="276.1719" y2="276.1719"/><polygon fill="#000000" points="874.7147,353.8125,878.7147,363.8125,882.7147,353.8125,878.7147,357.8125" style="stroke:#000000;stroke-width:1;"/><line style="stroke:#000000;stroke-width:1;" x1="878.7147" x2="878.7147" y1="276.1719" y2="435.6328"/><polygon fill="#000000" points="874.7147,425.6328,878.7147,435.6328,882.7147,425.6328,878.7147,429.6328" style="stroke:#000000;stroke-width:1;"/><line style="stroke:#000000;stroke-width:1;" x1="187.9531" x2="187.9531" y1="244.1719" y2="264.1719"/><polygon fill="#000000" points="183.9531,254.1719,187.9531,264.1719,191.9531,254.1719,187.9531,258.1719" style="stroke:#000000;stroke-width:1;"/><line style="stroke:#000000;stroke-width:1;" x1="1318.835" x2="1318.835" y1="681.8359" y2="716.8359"/><polygon fill="#000000" points="1314.835,706.8359,1318.835,716.8359,1322.835,706.8359,1318.835,710.8359" style="stroke:#000000;stroke-width:1;"/><line style="stroke:#000000;stroke-width:1;" x1="1106.3723" x2="1017.4897" y1="618.1953" y2="618.1953"/><line style="stroke:#000000;stroke-width:1;" x1="1017.4897" x2="1017.4897" y1="618.1953" y2="650.1953"/><polygon fill="#000000" points="1013.4897,640.1953,1017.4897,650.1953,1021.4897,640.1953,1017.4897,644.1953" style="stroke:#000000;stroke-width:1;"/><line style="stroke:#000000;stroke-width:1;" x1="1229.9524" x2="1318.835" y1="618.1953" y2="618.1953"/><line style="stroke:#000000;stroke-width:1;" x1="1318.835" x2="1318.835" y1="618.1953" y2="650.1953"/><polygon fill="#000000" points="1314.835,640.1953,1318.835,650.1953,1322.835,640.1953,1318.835,644.1953" style="stroke:#000000;stroke-width:1;"/><line style="stroke:#000000;stroke-width:1;" x1="1318.835" x2="1318.835" y1="748.4766" y2="1191.9609"/><line style="stroke:#000000;stroke-width:1;" x1="1318.835" x2="1180.1624" y1="1191.9609" y2="1191.9609"/><polygon fill="#000000" points="1190.1624,1187.9609,1180.1624,1191.9609,1190.1624,1195.9609,1186.1624,1191.9609" style="stroke:#000000;stroke-width:1;"/><line style="stroke:#000000;stroke-width:1;" x1="1168.1624" x2="1168.1624" y1="574.5547" y2="606.1953"/><polygon fill="#000000" points="1164.1624,596.1953,1168.1624,606.1953,1172.1624,596.1953,1168.1624,600.1953" style="stroke:#000000;stroke-width:1;"/><line style="stroke:#000000;stroke-width:1;" x1="804.5638" x2="589.2671" y1="510.9141" y2="510.9141"/><line style="stroke:#000000;stroke-width:1;" x1="589.2671" x2="589.2671" y1="510.9141" y2="542.9141"/><polygon fill="#000000" points="585.2671,532.9141,589.2671,542.9141,593.2671,532.9141,589.2671,536.9141" style="stroke:#000000;stroke-width:1;"/><line style="stroke:#000000;stroke-width:1;" x1="952.8656" x2="1168.1624" y1="510.9141" y2="510.9141"/><line style="stroke:#000000;stroke-width:1;" x1="1168.1624" x2="1168.1624" y1="510.9141" y2="542.9141"/><polygon fill="#000000" points="1164.1624,532.9141,1168.1624,542.9141,1172.1624,532.9141,1168.1624,536.9141" style="stroke:#000000;stroke-width:1;"/><line style="stroke:#000000;stroke-width:1;" x1="1168.1624" x2="1168.1624" y1="1203.9609" y2="1225.9609"/><line style="stroke:#000000;stroke-width:1;" x1="1168.1624" x2="890.7147" y1="1225.9609" y2="1225.9609"/><polygon fill="#000000" points="900.7147,1221.9609,890.7147,1225.9609,900.7147,1229.9609,896.7147,1225.9609" style="stroke:#000000;stroke-width:1;"/><line style="stroke:#000000;stroke-width:1;" x1="878.7147" x2="878.7147" y1="467.2734" y2="498.9141"/><polygon fill="#000000" points="874.7147,488.9141,878.7147,498.9141,882.7147,488.9141,878.7147,492.9141" style="stroke:#000000;stroke-width:1;"/><line style="stroke:#000000;stroke-width:1;" x1="1792.7344" x2="1792.7344" y1="649.4766" y2="684.4766"/><polygon fill="#000000" points="1788.7344,674.4766,1792.7344,684.4766,1796.7344,674.4766,1792.7344,678.4766" style="stroke:#000000;stroke-width:1;"/><line style="stroke:#000000;stroke-width:1;" x1="1792.7344" x2="1792.7344" y1="716.1172" y2="751.1172"/><polygon fill="#000000" points="1788.7344,741.1172,1792.7344,751.1172,1796.7344,741.1172,1792.7344,745.1172" style="stroke:#000000;stroke-width:1;"/><line style="stroke:#000000;stroke-width:1;" x1="1792.7344" x2="1792.7344" y1="782.7578" y2="817.7578"/><polygon fill="#000000" points="1788.7344,807.7578,1792.7344,817.7578,1796.7344,807.7578,1792.7344,811.7578" style="stroke:#000000;stroke-width:1;"/><line style="stroke:#000000;stroke-width:1;" x1="1792.7344" x2="1792.7344" y1="849.3984" y2="884.3984"/><polygon fill="#000000" points="1788.7344,874.3984,1792.7344,884.3984,1796.7344,874.3984,1792.7344,878.3984" style="stroke:#000000;stroke-width:1;"/><line style="stroke:#000000;stroke-width:1;" x1="1792.7344" x2="1792.7344" y1="916.0391" y2="951.0391"/><polygon fill="#000000" points="1788.7344,941.0391,1792.7344,951.0391,1796.7344,941.0391,1792.7344,945.0391" style="stroke:#000000;stroke-width:1;"/><line style="stroke:#000000;stroke-width:1;" x1="2217.1425" x2="2217.1425" y1="748.4766" y2="783.4766"/><polygon fill="#000000" points="2213.1425,773.4766,2217.1425,783.4766,2221.1425,773.4766,2217.1425,777.4766" style="stroke:#000000;stroke-width:1;"/><line style="stroke:#000000;stroke-width:1;" x1="2217.1425" x2="2217.1425" y1="815.1172" y2="850.1172"/><polygon fill="#000000" points="2213.1425,840.1172,2217.1425,850.1172,2221.1425,840.1172,2217.1425,844.1172" style="stroke:#000000;stroke-width:1;"/><line style="stroke:#000000;stroke-width:1;" x1="2217.1425" x2="2217.1425" y1="881.7578" y2="916.7578"/><polygon fill="#000000" points="2213.1425,906.7578,2217.1425,916.7578,2221.1425,906.7578,2217.1425,910.7578" style="stroke:#000000;stroke-width:1;"/><line style="stroke:#000000;stroke-width:1;" x1="2217.1425" x2="2217.1425" y1="948.3984" y2="983.3984"/><polygon fill="#000000" points="2213.1425,973.3984,2217.1425,983.3984,2221.1425,973.3984,2217.1425,977.3984" style="stroke:#000000;stroke-width:1;"/><line style="stroke:#000000;stroke-width:1;" x1="2217.1425" x2="2217.1425" y1="1015.0391" y2="1035.0391"/><polygon fill="#000000" points="2213.1425,1025.0391,2217.1425,1035.0391,2221.1425,1025.0391,2217.1425,1029.0391" style="stroke:#000000;stroke-width:1;"/><line style="stroke:#000000;stroke-width:1;" x1="2217.1425" x2="2217.1425" y1="1066.6797" y2="1086.6797"/><polygon fill="#000000" points="2213.1425,1076.6797,2217.1425,1086.6797,2221.1425,1076.6797,2217.1425,1080.6797" style="stroke:#000000;stroke-width:1;"/><line style="stroke:#000000;stroke-width:1;" x1="2217.1425" x2="2217.1425" y1="1118.3203" y2="1138.3203"/><polygon fill="#000000" points="2213.1425,1128.3203,2217.1425,1138.3203,2221.1425,1128.3203,2217.1425,1132.3203" style="stroke:#000000;stroke-width:1;"/><line style="stroke:#000000;stroke-width:1;" x1="2580.6068" x2="2580.6068" y1="1301.2422" y2="1321.2422"/><polygon fill="#000000" points="2576.6068,1311.2422,2580.6068,1321.2422,2584.6068,1311.2422,2580.6068,1315.2422" style="stroke:#000000;stroke-width:1;"/><line style="stroke:#000000;stroke-width:1;" x1="2580.6068" x2="2580.6068" y1="1352.8828" y2="1372.8828"/><polygon fill="#000000" points="2576.6068,1362.8828,2580.6068,1372.8828,2584.6068,1362.8828,2580.6068,1366.8828" style="stroke:#000000;stroke-width:1;"/><line style="stroke:#000000;stroke-width:1;" x1="2580.6068" x2="2580.6068" y1="1404.5234" y2="1424.5234"/><polygon fill="#000000" points="2576.6068,1414.5234,2580.6068,1424.5234,2584.6068,1414.5234,2580.6068,1418.5234" style="stroke:#000000;stroke-width:1;"/><line style="stroke:#000000;stroke-width:1;" x1="2580.6068" x2="2580.6068" y1="1456.1641" y2="1476.1641"/><polygon fill="#000000" points="2576.6068,1466.1641,2580.6068,1476.1641,2584.6068,1466.1641,2580.6068,1470.1641" style="stroke:#000000;stroke-width:1;"/><line style="stroke:#000000;stroke-width:1;" x1="2580.6068" x2="2580.6068" y1="1507.8047" y2="1527.8047"/><polygon fill="#000000" points="2576.6068,1517.8047,2580.6068,1527.8047,2584.6068,1517.8047,2580.6068,1521.8047" style="stroke:#000000;stroke-width:1;"/><line style="stroke:#000000;stroke-width:1;" x1="3137.5983" x2="3137.5983" y1="1655.0859" y2="1675.0859"/><polygon fill="#000000" points="3133.5983,1665.0859,3137.5983,1675.0859,3141.5983,1665.0859,3137.5983,1669.0859" style="stroke:#000000;stroke-width:1;"/><line style="stroke:#000000;stroke-width:1;" x1="3091.7286" x2="3042.9559" y1="2175.1328" y2="2175.1328"/><line style="stroke:#000000;stroke-width:1;" x1="3042.9559" x2="3042.9559" y1="2175.1328" y2="2197.1328"/><polygon fill="#000000" points="3038.9559,2187.1328,3042.9559,2197.1328,3046.9559,2187.1328,3042.9559,2191.1328" style="stroke:#000000;stroke-width:1;"/><line style="stroke:#000000;stroke-width:1;" x1="3183.4679" x2="3232.2406" y1="2175.1328" y2="2175.1328"/><line style="stroke:#000000;stroke-width:1;" x1="3232.2406" x2="3232.2406" y1="2175.1328" y2="2197.1328"/><polygon fill="#000000" points="3228.2406,2187.1328,3232.2406,2197.1328,3236.2406,2187.1328,3232.2406,2191.1328" style="stroke:#000000;stroke-width:1;"/><line style="stroke:#000000;stroke-width:1;" x1="3042.9559" x2="3042.9559" y1="2228.7734" y2="2246.7734"/><line style="stroke:#000000;stroke-width:1;" x1="3042.9559" x2="3125.5983" y1="2246.7734" y2="2246.7734"/><polygon fill="#000000" points="3115.5983,2242.7734,3125.5983,2246.7734,3115.5983,2250.7734,3119.5983,2246.7734" style="stroke:#000000;stroke-width:1;"/><line style="stroke:#000000;stroke-width:1;" x1="3232.2406" x2="3232.2406" y1="2228.7734" y2="2246.7734"/><line style="stroke:#000000;stroke-width:1;" x1="3232.2406" x2="3149.5983" y1="2246.7734" y2="2246.7734"/><polygon fill="#000000" points="3159.5983,2242.7734,3149.5983,2246.7734,3159.5983,2250.7734,3155.5983,2246.7734" style="stroke:#000000;stroke-width:1;"/><line style="stroke:#000000;stroke-width:1;" x1="3303.6621" x2="3303.6621" y1="2344.4141" y2="2364.4141"/><polygon fill="#000000" points="3299.6621,2354.4141,3303.6621,2364.4141,3307.6621,2354.4141,3303.6621,2358.4141" style="stroke:#000000;stroke-width:1;"/><line style="stroke:#000000;stroke-width:1;" x1="3739.411" x2="3739.411" y1="1781.6484" y2="1801.6484"/><polygon fill="#000000" points="3735.411,1791.6484,3739.411,1801.6484,3743.411,1791.6484,3739.411,1795.6484" style="stroke:#000000;stroke-width:1;"/><line style="stroke:#000000;stroke-width:1;" x1="3739.411" x2="3739.411" y1="1833.2891" y2="1853.2891"/><polygon fill="#000000" points="3735.411,1843.2891,3739.411,1853.2891,3743.411,1843.2891,3739.411,1847.2891" style="stroke:#000000;stroke-width:1;"/><line style="stroke:#000000;stroke-width:1;" x1="3739.411" x2="3739.411" y1="1884.9297" y2="1904.9297"/><polygon fill="#000000" points="3735.411,1894.9297,3739.411,1904.9297,3743.411,1894.9297,3739.411,1898.9297" style="stroke:#000000;stroke-width:1;"/><line style="stroke:#000000;stroke-width:1;" x1="3739.411" x2="3739.411" y1="1936.5703" y2="1956.5703"/><polygon fill="#000000" points="3735.411,1946.5703,3739.411,1956.5703,3743.411,1946.5703,3739.411,1950.5703" style="stroke:#000000;stroke-width:1;"/><line style="stroke:#000000;stroke-width:1;" x1="3739.411" x2="3739.411" y1="1988.2109" y2="2008.2109"/><polygon fill="#000000" points="3735.411,1998.2109,3739.411,2008.2109,3743.411,1998.2109,3739.411,2002.2109" style="stroke:#000000;stroke-width:1;"/><line style="stroke:#000000;stroke-width:1;" x1="3739.411" x2="3739.411" y1="2039.8516" y2="2059.8516"/><polygon fill="#000000" points="3735.411,2049.8516,3739.411,2059.8516,3743.411,2049.8516,3739.411,2053.8516" style="stroke:#000000;stroke-width:1;"/><line style="stroke:#000000;stroke-width:1;" x1="3739.411" x2="3739.411" y1="2091.4922" y2="2111.4922"/><polygon fill="#000000" points="3735.411,2101.4922,3739.411,2111.4922,3743.411,2101.4922,3739.411,2105.4922" style="stroke:#000000;stroke-width:1;"/><line style="stroke:#000000;stroke-width:1;" x1="589.2671" x2="589.2671" y1="586.1953" y2="600.3359"/><line style="stroke:#000000;stroke-width:1;" x1="589.2671" x2="1792.7344" y1="600.3359" y2="600.3359"/><line style="stroke:#000000;stroke-width:1;" x1="1792.7344" x2="1792.7344" y1="600.3359" y2="617.8359"/><polygon fill="#000000" points="1788.7344,607.8359,1792.7344,617.8359,1796.7344,607.8359,1792.7344,611.8359" style="stroke:#000000;stroke-width:1;"/><line style="stroke:#000000;stroke-width:1;" x1="1017.4897" x2="1017.4897" y1="681.8359" y2="699.3359"/><line style="stroke:#000000;stroke-width:1;" x1="1017.4897" x2="2217.1425" y1="699.3359" y2="699.3359"/><line style="stroke:#000000;stroke-width:1;" x1="2217.1425" x2="2217.1425" y1="699.3359" y2="716.8359"/><polygon fill="#000000" points="2213.1425,706.8359,2217.1425,716.8359,2221.1425,706.8359,2217.1425,710.8359" style="stroke:#000000;stroke-width:1;"/><line style="stroke:#000000;stroke-width:1;" x1="2217.1425" x2="2217.1425" y1="1169.9609" y2="1173.9609"/><line style="stroke:#000000;stroke-width:1;" x1="2217.1425" x2="1138.1624" y1="1173.9609" y2="1173.9609"/><line style="stroke:#000000;stroke-width:1;" x1="1138.1624" x2="1138.1624" y1="1173.9609" y2="1191.9609"/><line style="stroke:#000000;stroke-width:1;" x1="1138.1624" x2="1156.1624" y1="1191.9609" y2="1191.9609"/><polygon fill="#000000" points="1146.1624,1187.9609,1156.1624,1191.9609,1146.1624,1195.9609,1150.1624,1191.9609" style="stroke:#000000;stroke-width:1;"/><line style="stroke:#000000;stroke-width:1;" x1="1792.7344" x2="1792.7344" y1="982.6797" y2="1207.9609"/><line style="stroke:#000000;stroke-width:1;" x1="1792.7344" x2="848.7147" y1="1207.9609" y2="1207.9609"/><line style="stroke:#000000;stroke-width:1;" x1="848.7147" x2="848.7147" y1="1207.9609" y2="1225.9609"/><line style="stroke:#000000;stroke-width:1;" x1="848.7147" x2="866.7147" y1="1225.9609" y2="1225.9609"/><polygon fill="#000000" points="856.7147,1221.9609,866.7147,1225.9609,856.7147,1229.9609,860.7147,1225.9609" style="stroke:#000000;stroke-width:1;"/><line style="stroke:#000000;stroke-width:1;" x1="878.7147" x2="878.7147" y1="1237.9609" y2="1242.9609"/><line style="stroke:#000000;stroke-width:1;" x1="878.7147" x2="2580.6068" y1="1242.9609" y2="1242.9609"/><line style="stroke:#000000;stroke-width:1;" x1="2580.6068" x2="2580.6068" y1="1242.9609" y2="1257.9609"/><polygon fill="#000000" points="2576.6068,1247.9609,2580.6068,1257.9609,2584.6068,1247.9609,2580.6068,1251.9609" style="stroke:#000000;stroke-width:1;"/><line style="stroke:#000000;stroke-width:1;" x1="3137.5983" x2="3137.5983" y1="1718.3672" y2="1723.3672"/><line style="stroke:#000000;stroke-width:1;" x1="3137.5983" x2="3739.411" y1="1723.3672" y2="1723.3672"/><line style="stroke:#000000;stroke-width:1;" x1="3739.411" x2="3739.411" y1="1723.3672" y2="1738.3672"/><polygon fill="#000000" points="3735.411,1728.3672,3739.411,1738.3672,3743.411,1728.3672,3739.411,1732.3672" style="stroke:#000000;stroke-width:1;"/><line style="stroke:#000000;stroke-width:1;" x1="3739.411" x2="3739.411" y1="2143.1328" y2="2148.1328"/><line style="stroke:#000000;stroke-width:1;" x1="3739.411" x2="3137.5983" y1="2148.1328" y2="2148.1328"/><line style="stroke:#000000;stroke-width:1;" x1="3137.5983" x2="3137.5983" y1="2148.1328" y2="2163.1328"/><polygon fill="#000000" points="3133.5983,2153.1328,3137.5983,2163.1328,3141.5983,2153.1328,3137.5983,2157.1328" style="stroke:#000000;stroke-width:1;"/><line style="stroke:#000000;stroke-width:1;" x1="123.729" x2="111.729" y1="1591.4453" y2="1591.4453"/><line style="stroke:#000000;stroke-width:1;" x1="111.729" x2="111.729" y1="1591.4453" y2="1609.4453"/><line style="stroke:#000000;stroke-width:1;" x1="111.729" x2="3137.5983" y1="1609.4453" y2="1609.4453"/><line style="stroke:#000000;stroke-width:1;" x1="3137.5983" x2="3137.5983" y1="1609.4453" y2="1623.4453"/><polygon fill="#000000" points="3133.5983,1613.4453,3137.5983,1623.4453,3141.5983,1613.4453,3137.5983,1617.4453" style="stroke:#000000;stroke-width:1;"/><line style="stroke:#000000;stroke-width:1;" x1="252.1772" x2="3469.726" y1="1591.4453" y2="1591.4453"/><line style="stroke:#000000;stroke-width:1;" x1="3469.726" x2="3469.726" y1="1591.4453" y2="1623.4453"/><polygon fill="#000000" points="3465.726,1613.4453,3469.726,1623.4453,3473.726,1613.4453,3469.726,1617.4453" style="stroke:#000000;stroke-width:1;"/><line style="stroke:#000000;stroke-width:1;" x1="3137.5983" x2="3137.5983" y1="2258.7734" y2="2262.7734"/><line style="stroke:#000000;stroke-width:1;" x1="3137.5983" x2="157.9531" y1="2262.7734" y2="2262.7734"/><line style="stroke:#000000;stroke-width:1;" x1="157.9531" x2="157.9531" y1="2262.7734" y2="2280.7734"/><line style="stroke:#000000;stroke-width:1;" x1="157.9531" x2="175.9531" y1="2280.7734" y2="2280.7734"/><polygon fill="#000000" points="165.9531,2276.7734,175.9531,2280.7734,165.9531,2284.7734,169.9531,2280.7734" style="stroke:#000000;stroke-width:1;"/><line style="stroke:#000000;stroke-width:1;" x1="3469.726" x2="3469.726" y1="1655.0859" y2="2280.7734"/><line style="stroke:#000000;stroke-width:1;" x1="3469.726" x2="199.9531" y1="2280.7734" y2="2280.7734"/><polygon fill="#000000" points="209.9531,2276.7734,199.9531,2280.7734,209.9531,2284.7734,205.9531,2280.7734" style="stroke:#000000;stroke-width:1;"/><line style="stroke:#000000;stroke-width:1;" x1="2580.6068" x2="2580.6068" y1="1559.4453" y2="1564.4453"/><line style="stroke:#000000;stroke-width:1;" x1="2580.6068" x2="187.9531" y1="1564.4453" y2="1564.4453"/><line style="stroke:#000000;stroke-width:1;" x1="187.9531" x2="187.9531" y1="1564.4453" y2="1579.4453"/><polygon fill="#000000" points="183.9531,1569.4453,187.9531,1579.4453,191.9531,1569.4453,187.9531,1573.4453" style="stroke:#000000;stroke-width:1;"/><line style="stroke:#000000;stroke-width:1;" x1="187.9531" x2="187.9531" y1="2292.7734" y2="2297.7734"/><line style="stroke:#000000;stroke-width:1;" x1="187.9531" x2="3303.6621" y1="2297.7734" y2="2297.7734"/><line style="stroke:#000000;stroke-width:1;" x1="3303.6621" x2="3303.6621" y1="2297.7734" y2="2312.7734"/><polygon fill="#000000" points="3299.6621,2302.7734,3303.6621,2312.7734,3307.6621,2302.7734,3303.6621,2306.7734" style="stroke:#000000;stroke-width:1;"/><text fill="#000000" font-family="Verdana" font-size="10" lengthAdjust="spacing" textLength="49.8779" x="210.4995" y="61.8916">Main Flow</text><text fill="#000000" font-family="Verdana" font-size="10" lengthAdjust="spacing" textLength="103.2129" x="972.6436" y="61.8916">Password Resolution</text><text fill="#000000" font-family="Verdana" font-size="10" lengthAdjust="spacing" textLength="102.5928" x="1952.642" y="61.8916">Vault Authentication</text><text fill="#000000" font-family="Verdana" font-size="10" lengthAdjust="spacing" textLength="125.6348" x="2625.5214" y="61.8916">Connection Management</text><text fill="#000000" font-family="Verdana" font-size="10" lengthAdjust="spacing" textLength="103.418" x="3222.7323" y="61.8916">Procedure Execution</text><text fill="#000000" font-family="Verdana" font-size="10" lengthAdjust="spacing" textLength="105.8691" x="3685.4764" y="61.8916">Database Operations</text><!--SRC=[hLPjRzis4FwkNt53WC46_9BihPkyRcljE2YGB4QyT1WmOA35ays49ZMISkh5-UyxafAik4aRO1C2H-Azyfw7T_p2hN2DK4WcL69lXIgOOMjOiEnsQNIf-5XBRU1e6fwM1iUSbT9DjN9pyG_2oN5Bo38dDi9juJu1UjuUUZlzVlhDT19bsd0qrVh93w- -ctmLrhtZQlKuFCb3Au3I3fzpJdb-VNhyiVFfjw_6mKtYX9C8Oxqk99AVgTHtAPn-m6ncT3PUy_1UEg4Lt0ctWZSbLKavaR6mzYLCc6CBPhqFfJ3pgqcoEpeNovLxAqlSNL0vWzzTOXqpBaclBHh0u1Tj6jxw1OM3VWaboHGZ6FeSUEswNu2N8oyDZfAmOUFzKwRAcItCj50kIT9MteECITdfZfBqFPE2F949_bqAWnn2tMYtnaB7n-iraKW_4JbqPdkDZJV_kGj-sz1HkalLJA_GbKO16aFLp3Gdp4UqRfqk4bHSv4q9pWoYsisOjNS405oXrJAKSvUandzii1PswkWhPYUKQERUUrg5N6ods-ImHUkJ26MGc5CLeZQbIkhjtL7HDe8Zzoa7NsCf2Bn1ZYvRNHgMoNtmFrKmlpQo1qPBVCTxO34pwFnRNQ0UCE5w0QMkt_7kw0-K7jlW_e0TEn_tRIaaXxoK4gBEzTKvRT6vmgR3OOZPbn872wPkTKwP6x8UP7eT_ATZWnuxHeu3W6XT9ABFiI_uCEP8Rq5zTZd_3OQRaw4t6BAYy6f3gPT21Vdf1qVRTf25Glpbz2rLD3TwJSvjePN5e7Ps6hr4vtPORt-eGz66H6JQP9-4t0xl-U9NolkXVq-reT-QmW-Z5bLYjGcSMEvOkyyn12MHl-PS6y0bjhanrSOVgKw3Ilk4p96PR1MvOGStbWvjJgJrkiHSbOib6T2V9zvcxvEKg8qSSku5F6gIU04voDsvPhmYRimcej5AD_fgaAjmhyaPNZqq_TB8IlM_KUvfqbMIp_3h6OPLel-FLP_arKkO1T3c5hcZZQmB6c6ctOsyfCsb2wPA9fjWWA7xvjHf_P2iys9yhn70960fSZXPiJa-Rf7ZBLEx_VJmKTYI9h5or2Ftwt7P3B80pdwTEfVR5jZkKR6frqdqG14LV7DDpr2XyT2UJzxCV5vrJEkCKCl7ioNIg2fmCF0yyeU7YiNBQ5W79USLQ_QPlLEv1hsueI-QGyHFU0qtV96b4U_KhOJwHN9M42kru2U5p_k0bOE1ds7XjBw6Qc3mPagIg2brIxndmtEJs9_sPgI2BJ0JkS2FpllkQ2RKxMxMQ3QtWT3RgndUY3jruDYxc_LefStWqE1twkJpK7fBC3O9zO0kDoND6Lqw-X-ynOR9DiGTDBlcrd5PU40f8HiocXYnGLDJXTha8vvum3qe0yAYq-t1_jktp_P2qPo2QYlCKB1znS8LXQdsNQ8zhiPq9DX2ufnET61o4CxHnOqTMbtXKbZwglPxA8xbGt-z2DUN_LMerM-UDgsw1373zy4BLlmOozs3oy3BdvhIVWfepvOvMKciF3qn5sRare6DMdHfAX6SVdJq7pUSg7-BstvKBfYW6yk1IUmMxIaOpHhIcwQdWIsp3As5DVqG-gEwozGrgENXkdOyIi9bxLy0]--></g></svg>